<svg width="317" height="317" viewBox="0 0 317 317" fill="none" xmlns="http://www.w3.org/2000/svg">
<g clip-path="url(#clip0_416_33)">
<path d="M257 31H61C44.4315 31 31 44.4315 31 61V257C31 273.569 44.4315 287 61 287H257C273.569 287 287 273.569 287 257V61C287 44.4315 273.569 31 257 31Z" fill="#6633FF"/>
<mask id="mask0_416_33" style="mask-type:luminance" maskUnits="userSpaceOnUse" x="59" y="60" width="200" height="198">
<path d="M59.9087 60.6055H258.091V257.394H59.9087V60.6055Z" fill="white"/>
</mask>
<g mask="url(#mask0_416_33)">
<path d="M64.6758 140.436C55.1385 108.391 59.902 77.7375 100.405 66.1363C110.676 63.1942 126.333 61.0686 136.961 60.9024C175.759 60.2945 256.099 60.776 257.934 60.921C258.943 61.0021 255.061 76.3915 248.256 86.5681C237.127 103.21 221.275 111.022 201.247 112.038C176.584 113.29 151.852 113.523 127.151 113.535C102.693 113.547 81.7089 120.911 65.5892 140.122C65.4112 140.335 64.9875 140.34 64.6758 140.436Z" fill="white"/>
<path d="M186.673 132.908L121.246 132.788C87.3208 133.084 59.9087 160.863 59.9087 195.091C59.9087 229.32 87.3208 257.098 121.246 257.395V176.998H186.673V132.908Z" fill="white"/>
</g>
</g>
<defs>
<clipPath id="clip0_416_33">
<rect width="256" height="256" fill="white" transform="translate(31 31)"/>
</clipPath>
</defs>
</svg>
